<svg xmlns="http://www.w3.org/2000/svg" viewBox="0 0 1024 1024">
  <rect width="1024" height="1024" rx="224" fill="#16171d"/>
  <path transform="translate(187.0 638.9) scale(0.4700 -0.4700)" fill="#f3f4f6" d="M59 0H207V94H214C240 32 284 -12 367 -12C481 -12 561 71 561 258C561 445 481 528 367 528C284 528 240 484 214 422H207V740H59ZM303 103C251 103 207 128 207 182V334C207 388 251 413 303 413C369 413 407 370 407 298V218C407 146 369 103 303 103Z"/>
  <path transform="translate(469.0 638.9) scale(0.4700 -0.4700)" fill="#f3f4f6" d="M59 -200H207V94H214C240 32 284 -12 367 -12C481 -12 561 71 561 258C561 445 481 528 367 528C284 528 240 484 214 422H207V516H59ZM303 103C251 103 207 128 207 182V334C207 388 251 413 303 413C369 413 407 370 407 298V218C407 146 369 103 303 103Z"/>
  <rect x="785.0" y="305.1" width="52" height="325.8" rx="26" fill="#f87171"/>
</svg>
